# xmcd
# Copyright
#
# Track frame offsets:
#	150
#	12672
#	29510
#	42585
#	54809
#	66926
#	80493
#	93939
#	108368
#	121562
#
# Disc length: 1764 seconds
#
# Revision: 3
# Processed by: cddbd v1.4b41PL1 Copyright (c) Steve Scherf et al.
# Submitted via: CdAid 2001.03.30.01
#
DISCID=7a06e20a
DTITLE=The Best of BB King  - Blues On Top Of Blues
DYEAR=1900
DGENRE=
TTITLE0=Everyday ( I have the blues)
TTITLE1=Three O'Clock Blues
TTITLE2=When My Heart Beats Like a Hammer
TTITLE3=Why I Sing the Blues
TTITLE4=A Whole Lot of Lovin'
TTITLE5=You Upset Me Baby
TTITLE6=Sweet Little Angel
TTITLE7=Ain't That Just Like A Woman
TTITLE8=Crying Won't Help You
TTITLE9=You Don't Know
EXTD=
EXTT0=
EXTT1=
EXTT2=
EXTT3=
EXTT4=
EXTT5=
EXTT6=
EXTT7=
EXTT8=
EXTT9=
PLAYORDER=
